<svg width="8" height="8" viewBox="0 0 8 8" fill="none" xmlns="http://www.w3.org/2000/svg">
<path d="M8 2.25V6.75C8 7.16406 7.66406 7.5 7.25 7.5H0.75C0.335938 7.5 0 7.16406 0 6.75V2.25C0 1.83594 0.335938 1.5 0.75 1.5H2.125L2.31719 0.985937C2.42656 0.69375 2.70625 0.5 3.01875 0.5H4.97969C5.29219 0.5 5.57188 0.69375 5.68125 0.985937L5.875 1.5H7.25C7.66406 1.5 8 1.83594 8 2.25ZM5.875 4.5C5.875 3.46563 5.03438 2.625 4 2.625C2.96563 2.625 2.125 3.46563 2.125 4.5C2.125 5.53438 2.96563 6.375 4 6.375C5.03438 6.375 5.875 5.53438 5.875 4.5ZM5.375 4.5C5.375 5.25781 4.75781 5.875 4 5.875C3.24219 5.875 2.625 5.25781 2.625 4.5C2.625 3.74219 3.24219 3.125 4 3.125C4.75781 3.125 5.375 3.74219 5.375 4.5Z" fill="white"/>
</svg>
