<svg width="24" height="24" viewBox="0 0 24 24" fill="none" xmlns="http://www.w3.org/2000/svg">
<g opacity="0.9">
<path d="M5.658 12.6621C5.52597 12.7166 5.38446 12.7446 5.24157 12.7445C5.02636 12.7443 4.81608 12.6803 4.63734 12.5608L4.30377 13.0595L4.63734 12.5608C4.4586 12.4412 4.31944 12.2715 4.23737 12.0731C4.15531 11.8746 4.134 11.6564 4.1761 11.4459C4.21821 11.2354 4.32186 11.042 4.47404 10.8902C4.62623 10.7385 4.82012 10.6351 5.03122 10.5934C5.24232 10.5516 5.46107 10.5733 5.65978 10.6558C5.85849 10.7382 6.02817 10.8776 6.14744 11.0563C6.26671 11.235 6.33023 11.4449 6.33004 11.6595C6.32991 11.8021 6.30169 11.9432 6.24696 12.0748C6.19224 12.2065 6.11208 12.3261 6.01103 12.4269C5.90999 12.5277 5.79003 12.6076 5.658 12.6621Z" fill="#828282" stroke="#4F4F4F" stroke-width="1.2"/>
<path d="M7.08152 9.10743C6.94949 9.16193 6.80799 9.18992 6.66509 9.1898C6.44988 9.1896 6.23961 9.12566 6.06086 9.00611C5.88212 8.88656 5.74296 8.7168 5.6609 8.51837C5.57884 8.31994 5.55752 8.10169 5.59963 7.89119C5.64173 7.68069 5.74539 7.48731 5.89757 7.33554C6.04976 7.18377 6.24364 7.08042 6.45474 7.03867C6.66585 6.99691 6.8846 7.01864 7.08331 7.10108C7.28201 7.18351 7.4517 7.32293 7.57097 7.5016C7.69023 7.68027 7.75375 7.8902 7.75356 8.10485C7.75343 8.24737 7.72521 8.38849 7.67049 8.52015C7.61576 8.65181 7.5356 8.77145 7.43456 8.87222C7.33351 8.973 7.21355 9.05293 7.08152 9.10743Z" fill="#828282" stroke="#4F4F4F" stroke-width="1.2"/>
<path d="M19.845 11.6586C19.845 12.2578 19.3586 12.7445 18.7575 12.7445C18.1564 12.7445 17.67 12.2578 17.67 11.6586C17.67 11.0594 18.1564 10.5727 18.7575 10.5727C19.3586 10.5727 19.845 11.0594 19.845 11.6586Z" fill="#828282" stroke="#4F4F4F" stroke-width="1.2"/>
<path d="M18.4215 8.10388C18.4215 8.70308 17.9352 9.1898 17.334 9.1898C16.7329 9.1898 16.2465 8.70308 16.2465 8.10388C16.2465 7.50468 16.7329 7.01797 17.334 7.01797C17.9352 7.01797 18.4215 7.50468 18.4215 8.10388Z" fill="#828282" stroke="#4F4F4F" stroke-width="1.2"/>
<path d="M9.9255 6.26759C9.79347 6.32209 9.65196 6.35008 9.50907 6.34995C9.29386 6.34976 9.08358 6.28581 8.90484 6.16626C8.7261 6.04671 8.58694 5.87696 8.50488 5.67852C8.42281 5.4801 8.4015 5.26184 8.4436 5.05135C8.48571 4.84085 8.58936 4.64747 8.74155 4.4957C8.89373 4.34392 9.08762 4.24058 9.29872 4.19882C9.50983 4.15707 9.72858 4.17879 9.92729 4.26123C10.126 4.34367 10.2957 4.48308 10.4149 4.66176C10.5342 4.84043 10.5977 5.05036 10.5975 5.265C10.5974 5.40753 10.5692 5.54865 10.5145 5.68031C10.4597 5.81197 10.3796 5.93161 10.2785 6.03238C10.1775 6.13315 10.0575 6.21308 9.9255 6.26759Z" fill="#828282" stroke="#4F4F4F" stroke-width="1.2"/>
<path d="M21.4032 17.9348L20.8595 17.5706C19.256 16.4962 17.4687 15.725 15.5865 15.2953L15.1572 15.1973L15.122 14.7584C15.0705 14.1184 14.8232 13.5097 14.4136 13.0148C14.004 12.5199 13.4519 12.1627 12.8321 11.9918L12.2221 11.8237L12.4224 11.2235L14.3934 5.31754L14.3935 5.31722C14.3997 5.29863 14.4022 5.27901 14.4008 5.25948C14.3994 5.23994 14.3942 5.22085 14.3854 5.20329C14.3767 5.18573 14.3645 5.17003 14.3496 5.15711L14.7428 4.7039L14.3496 5.1571C14.3347 5.14418 14.3174 5.13429 14.2986 5.12802L14.4885 4.55887L14.2986 5.12802C14.2798 5.12175 14.2599 5.11923 14.2402 5.12062C14.2204 5.12202 14.2011 5.12729 14.1834 5.13611C14.1657 5.14494 14.1499 5.15715 14.137 5.17201C14.1242 5.18677 14.1144 5.20387 14.1082 5.22232L21.4032 17.9348ZM21.4032 17.9348L21.719 17.3617M21.4032 17.9348L21.719 17.3617M21.719 17.3617C22.6494 15.6734 23.1233 13.772 23.0941 11.8449C23.0649 9.91785 22.5335 8.03168 21.5525 6.37232C20.5714 4.71297 19.1744 3.33775 17.4994 2.38216C15.8245 1.42664 13.9293 0.923651 12.0007 0.922731L21.719 17.3617ZM21.5619 18.1898L21.5707 18.197C21.5692 18.1987 21.5676 18.2004 21.566 18.2022L21.5578 18.1971C21.5469 18.2146 21.538 18.2305 21.5311 18.2434C21.5304 18.2448 21.5297 18.2461 21.529 18.2475C21.5169 18.2637 21.5048 18.2817 21.4931 18.3014C20.4583 19.8647 19.0526 21.1483 17.401 22.0379C15.7412 22.9319 13.885 23.4 11.9993 23.4C10.1135 23.4 8.25739 22.9319 6.59759 22.0379C4.9378 21.1439 3.52639 19.8519 2.49015 18.2782L2.47482 18.2549L2.47173 18.2511L2.46341 18.231L2.43326 18.1847C1.23686 16.3481 0.600022 14.2041 0.600026 12.0129L0.600023 12.0116C0.59645 10.2388 1.00723 8.48954 1.79969 6.90321C2.59215 5.31688 3.7444 3.93724 5.16475 2.87418C6.58511 1.81113 8.23432 1.09403 9.98107 0.780021C11.7278 0.466015 13.5238 0.563786 15.2261 1.06554C16.9283 1.5673 18.4898 2.45917 19.7861 3.67009C21.0824 4.88101 22.0778 6.37754 22.693 8.04048C23.3082 9.70343 23.5264 11.4869 23.33 13.2489C23.1336 15.0109 22.5282 16.7027 21.5619 18.1898ZM21.5707 18.2051C21.5721 18.2035 21.5735 18.2019 21.5748 18.2003L21.6149 18.2328L21.5707 18.2051ZM21.7186 18.0793C21.7184 18.0794 21.7183 18.0795 21.7181 18.0796L21.7189 18.0792L21.7186 18.0793ZM2.27469 18.0786C2.27437 18.0785 2.27608 18.0794 2.27839 18.0808L2.27573 18.0792L2.27498 18.0788L2.27469 18.0786ZM12.0082 11.5164L14.1081 5.22268L12.0003 0.922731C10.0702 0.920698 8.17302 1.42192 6.49619 2.37688C4.81925 3.33192 3.42076 4.70771 2.43903 6.3683C1.45731 8.0289 0.926363 9.91676 0.898733 11.8453C0.871104 13.7738 1.34775 15.676 2.2815 17.364L2.59788 17.936L3.14071 17.5719C4.74388 16.4968 6.53118 15.7251 8.41358 15.2953L8.84206 15.1974L8.87801 14.7594C8.93564 14.0572 9.22864 13.3949 9.70974 12.8796C10.1908 12.3643 10.832 12.026 11.5295 11.9196L11.8921 11.8644L12.0082 11.5164ZM12.0025 12.1621L11.9979 12.1622C11.3706 12.1644 10.7615 12.3733 10.2651 12.7567C9.76872 13.1401 9.41271 13.6765 9.25245 14.2827L9.02406 15.1468L9.91023 15.031C11.297 14.8499 12.7015 14.8499 14.0883 15.031L14.9745 15.1468L14.7461 14.2827C14.5859 13.6768 14.2302 13.1406 13.7342 12.7573C13.2381 12.3739 12.6295 12.1648 12.0025 12.1621ZM3.2975 17.8225L2.76855 18.1747L3.1505 18.6825C4.18191 20.054 5.51819 21.1672 7.05387 21.9343C8.58955 22.7014 10.2826 23.1015 11.9995 23.103H12.0006C13.717 23.1014 15.4096 22.7012 16.9448 21.9341C18.48 21.167 19.8158 20.0538 20.8466 18.6824L21.2284 18.1746L20.6996 17.8225C18.1226 16.1067 15.0952 15.1912 11.9985 15.1912C8.90187 15.1912 5.87442 16.1067 3.2975 17.8225Z" fill="#828282" stroke="#4F4F4F" stroke-width="1.2"/>
</g>
</svg>
