<svg width="35" height="28" viewBox="0 0 35 28" fill="none" xmlns="http://www.w3.org/2000/svg">
<g opacity="0.5">
<path d="M9 0.5H26C30.6944 0.5 34.5 4.30558 34.5 9V19C34.5 23.6944 30.6944 27.5 26 27.5H9C4.30558 27.5 0.5 23.6944 0.5 19V9C0.5 4.30558 4.30558 0.5 9 0.5Z" fill="white" stroke="#FE3092"/>
<path d="M26 1H9C4.58172 1 1 4.58172 1 9V19C1 23.4183 4.58172 27 9 27H26C30.4183 27 34 23.4183 34 19V9C34 4.58172 30.4183 1 26 1Z" stroke="#FE3092" stroke-width="2"/>
<path d="M16.6396 15.4516L20.4602 8.2509L25.1298 17.6133H10.7325L13.8105 11.1222L15.7418 15.4221L16.1605 16.3545L16.6396 15.4516Z" fill="#FE3092" stroke="#FE3092"/>
</g>
</svg>
