<svg width="19" height="17" viewBox="0 0 19 17" fill="none" xmlns="http://www.w3.org/2000/svg">
<g opacity="0.9">
<path d="M10.857 0C8.69742 0.000265158 6.62637 0.858271 5.09932 2.38532C3.57227 3.91237 2.71427 5.98342 2.714 8.143H0L3.52 11.663L3.583 11.79L7.238 8.144H4.524C4.51702 6.67038 5.02167 5.24002 5.9518 4.09702C6.88193 2.95402 8.1799 2.16924 9.62419 1.87661C11.0685 1.58398 12.5695 1.80164 13.8712 2.49245C15.1729 3.18326 16.1945 4.30439 16.7617 5.6645C17.3289 7.02462 17.4064 8.53941 16.9812 9.95035C16.5559 11.3613 15.6542 12.5809 14.4299 13.4011C13.2056 14.2213 11.7346 14.5912 10.268 14.4476C8.80139 14.3041 7.43004 13.656 6.388 12.614L5.1 13.9C6.04688 14.8461 7.21244 15.5441 8.49345 15.9322C9.77447 16.3204 11.1314 16.3866 12.4442 16.1252C13.7569 15.8638 14.985 15.2827 16.0195 14.4334C17.0541 13.5841 17.8633 12.4928 18.3755 11.2562C18.8877 10.0195 19.0871 8.67564 18.956 7.34355C18.8248 6.01146 18.3673 4.73225 17.6238 3.61918C16.8804 2.50612 15.8739 1.59355 14.6936 0.962267C13.5133 0.330986 12.1955 0.000474994 10.857 0ZM9.957 4.524V9.048L13.829 11.348L14.48 10.253L11.31 8.369V4.524H9.957Z" fill="white" fill-opacity="0.48"/>
<path d="M5.81915 13.8885L6.40061 13.308C7.47066 14.2324 8.80385 14.8067 10.2193 14.9452C11.8012 15.1001 13.3877 14.7011 14.7082 13.8165C16.0287 12.9319 17.0013 11.6164 17.4599 10.0946C17.9186 8.57284 17.8349 6.93904 17.2232 5.47206C16.6114 4.00509 15.5096 2.79587 14.1056 2.05079C12.7017 1.30571 11.0827 1.07095 9.5249 1.38657C7.96714 1.70219 6.56719 2.54863 5.56398 3.78143C4.56077 5.01423 4.01648 6.55697 4.02401 8.14637L4.02636 8.644H4.524H6.02879L3.61548 11.0514L1.20711 8.643H2.714H3.21394L3.214 8.14306C3.21425 6.11607 4.01958 4.17217 5.45288 2.73888C6.88612 1.30563 8.82992 0.500312 10.8568 0.5L5.81915 13.8885ZM5.81915 13.8885C6.63542 14.6036 7.59621 15.1379 8.63844 15.4537C9.84078 15.818 11.1144 15.8802 12.3465 15.6348C13.5786 15.3895 14.7312 14.8441 15.7023 14.0469C16.6733 13.2498 17.4328 12.2255 17.9136 11.0648C18.3943 9.90413 18.5814 8.6428 18.4584 7.39253C18.3353 6.14225 17.9059 4.94161 17.208 3.8969C16.5102 2.8522 15.5656 1.99568 14.4578 1.40317C13.35 0.810695 12.1133 0.500485 10.8571 0.5L5.81915 13.8885ZM10.81 8.369V8.65348L11.0545 8.79882L13.7947 10.4273L13.6546 10.6629L10.457 8.76345V5.024H10.81V8.369Z" stroke="#00081B" stroke-opacity="0.39"/>
</g>
</svg>
