<svg width="24" height="24" viewBox="0 0 24 24" fill="none" xmlns="http://www.w3.org/2000/svg">
<path d="M23.2762 10.0751L23.2764 10.0752C23.5525 10.3166 23.5761 10.7286 23.3294 10.9999C23.3294 10.9999 23.3294 11 23.3294 11L23.0246 11.3351L23.0243 11.3353C22.8538 11.523 22.6709 11.6366 22.533 11.683C22.4717 11.7036 22.4356 11.707 22.4179 11.7067L22.09 11.4188L21.9835 11.3255L21.9545 11.3001L21.947 11.2935L21.9451 11.2918L21.9446 11.2914L21.9444 11.2912L21.9444 11.2912L21.6149 11.6673L21.9444 11.2912L21.1149 10.5645V11.6673V22.0636C21.1149 22.4343 20.8147 22.7344 20.4442 22.7344H15.9983C15.6618 22.7344 15.3927 22.4709 15.3984 22.0713L15.3985 22.0713V22.0641V14.6866V14.1866H14.8985H9.54746H9.04746V14.6866V22.0641C9.04746 22.4348 8.74721 22.7349 8.3767 22.7349H4.1815C3.81098 22.7349 3.51073 22.4348 3.51073 22.0641V11.5188V10.3999L2.67717 11.1463L1.87285 11.8666L1.87275 11.8667C1.65591 12.061 1.23845 12.0673 0.951811 11.769L0.682107 11.4881L0.681772 11.4878C0.428534 11.2245 0.441276 10.8151 0.711122 10.5677L11.4735 0.702228L11.4735 0.702207C11.7621 0.437636 12.2553 0.431808 12.5504 0.689927L23.2762 10.0751ZM22.4041 11.705C22.4042 11.7049 22.4056 11.7051 22.4084 11.7061C22.4054 11.7057 22.404 11.7052 22.4041 11.705Z" stroke="#4F4F4F"/>
</svg>
