<svg width="19" height="25" viewBox="0 0 19 25" fill="none" xmlns="http://www.w3.org/2000/svg">
<g opacity="0.9">
<path d="M10 3H17.5C17.6326 3 17.7598 3.05268 17.8536 3.14645C17.9473 3.24021 18 3.36739 18 3.5V21.5C18 21.6326 17.9473 21.7598 17.8536 21.8536C17.7598 21.9473 17.6326 22 17.5 22H10" stroke="#00081B" stroke-opacity="0.4" stroke-width="1.5" stroke-linecap="round" stroke-linejoin="round"/>
<path d="M1 21.722C1.00004 21.8359 1.03892 21.9462 1.11019 22.035C1.18146 22.1237 1.28088 22.1855 1.392 22.21L9.392 23.988C9.46505 24.0042 9.5408 24.0038 9.61366 23.9868C9.68651 23.9698 9.75463 23.9366 9.81297 23.8898C9.87132 23.843 9.91841 23.7836 9.95078 23.7162C9.98315 23.6487 9.99997 23.5749 10 23.5V1.50005C9.99997 1.42523 9.98315 1.35137 9.95078 1.28392C9.91841 1.21647 9.87132 1.15714 9.81297 1.11031C9.75463 1.06348 9.68651 1.03034 9.61366 1.01333C9.5408 0.996326 9.46505 0.995887 9.392 1.01205L1.392 2.79005C1.28088 2.81463 1.18146 2.87639 1.11019 2.96512C1.03892 3.05385 1.00004 3.16424 1 3.27805V21.722Z" stroke="#00081B" stroke-opacity="0.4" stroke-width="1.5" stroke-linecap="round" stroke-linejoin="round"/>
<path d="M6.5 14C7.32843 14 8 13.3284 8 12.5C8 11.6716 7.32843 11 6.5 11C5.67157 11 5 11.6716 5 12.5C5 13.3284 5.67157 14 6.5 14Z" stroke="#00081B" stroke-opacity="0.4" stroke-width="1.5" stroke-linecap="round" stroke-linejoin="round"/>
</g>
</svg>
