<svg width="24" height="24" viewBox="0 0 24 24" fill="none" xmlns="http://www.w3.org/2000/svg">
<path d="M0.750022 24C0.554488 24 0.362562 23.9231 0.219731 23.7803C0.0175845 23.5781 -0.052002 23.2778 0.040279 23.0075L1.70214 18.1458C0.587403 16.2817 0 14.165 0 12C0 5.38331 5.38331 0 12 0C18.6167 0 24 5.38331 24 12C24 18.6167 18.6167 24 12 24C9.83495 24 7.71825 23.4126 5.85424 22.2979L0.992448 23.9597C0.913342 23.9868 0.831281 23.9999 0.750022 24ZM5.94727 20.7231C6.08865 20.7231 6.22927 20.7634 6.35156 20.841C8.04714 21.9265 10.0005 22.5 12 22.5C17.7898 22.5 22.5 17.7898 22.5 12C22.5 6.21019 17.7898 1.49999 12 1.49999C6.21024 1.49999 1.49999 6.21019 1.49999 12C1.49999 13.9995 2.07347 15.9529 3.15895 17.6484C3.28199 17.8411 3.31055 18.0791 3.2366 18.2952L1.95413 22.0459L5.70485 20.7634C5.78395 20.7363 5.86596 20.7231 5.94727 20.7231Z" fill="#4F4F4F"/>
</svg>
