<svg width="16" height="16" viewBox="0 0 16 16" fill="none" xmlns="http://www.w3.org/2000/svg">
<g clip-path="url(#clip0)">
<path d="M4.8 6.40003V12H11.2V6.40003C11.2 5.55134 10.8629 4.73741 10.2627 4.13729C9.66263 3.53717 8.8487 3.20003 8 3.20003C7.15131 3.20003 6.33738 3.53717 5.73726 4.13729C5.13714 4.73741 4.8 5.55134 4.8 6.40003ZM6.424 1.86403C6.38752 1.63548 6.40106 1.40173 6.46368 1.17892C6.52631 0.95611 6.63652 0.749536 6.78673 0.573454C6.93694 0.397371 7.12356 0.255972 7.33371 0.159013C7.54387 0.0620529 7.77256 0.0118408 8.004 0.0118408C8.23545 0.0118408 8.46414 0.0620529 8.67429 0.159013C8.88445 0.255972 9.07107 0.397371 9.22127 0.573454C9.37148 0.749536 9.4817 0.95611 9.54432 1.17892C9.60694 1.40173 9.62048 1.63548 9.584 1.86403C10.5245 2.19282 11.3394 2.80615 11.9157 3.61893C12.492 4.43172 12.801 5.40369 12.8 6.40003V11.2L15.2 12.8V13.6H0.800003V12.8L3.2 11.2V6.40003C3.19957 5.40272 3.50979 4.43003 4.08756 3.61713C4.66534 2.80423 5.48198 2.19148 6.424 1.86403ZM9.6 14.4C9.6 14.8244 9.43143 15.2313 9.13137 15.5314C8.83132 15.8315 8.42435 16 8 16C7.57566 16 7.16869 15.8315 6.86863 15.5314C6.56857 15.2313 6.4 14.8244 6.4 14.4H9.6Z" fill="#111111" fill-opacity="0.27"/>
<circle cx="12" cy="4" r="3.5" fill="#FF0066" stroke="white"/>
</g>
<defs>
<clipPath id="clip0">
<rect width="16" height="16" fill="white"/>
</clipPath>
</defs>
</svg>
