<svg width="19" height="22" viewBox="0 0 19 22" fill="none" xmlns="http://www.w3.org/2000/svg">
<g opacity="0.9">
<path d="M9.27301 11.5909C7.97175 11.615 6.71416 11.1214 5.77661 10.2188C4.83905 9.31609 4.29823 8.0781 4.27301 6.77687V5.81387C4.29823 4.51263 4.83905 3.27465 5.77661 2.37196C6.71416 1.46928 7.97175 0.975766 9.27301 0.999866V0.999866C10.5743 0.975766 11.8319 1.46928 12.7694 2.37196C13.707 3.27465 14.2478 4.51263 14.273 5.81387V6.77687C14.2478 8.0781 13.707 9.31609 12.7694 10.2188C11.8319 11.1214 10.5743 11.615 9.27301 11.5909V11.5909Z" stroke="#00081B" stroke-opacity="0.4" stroke-width="1.5" stroke-miterlimit="10" stroke-linecap="round" stroke-linejoin="round"/>
<path d="M17.545 19.1498C17.5802 18.3547 17.365 17.5686 16.9295 16.9024C16.4941 16.2362 15.8604 15.7236 15.118 15.4368C13.2309 14.8106 11.2608 14.4695 9.27301 14.4248C7.28513 14.4698 5.31509 14.8112 3.42801 15.4378C2.68557 15.7244 2.05184 16.2368 1.61622 16.9028C1.18059 17.5688 0.965051 18.3548 1.00001 19.1498V21.1648H17.545V19.1498Z" stroke="#00081B" stroke-opacity="0.4" stroke-width="1.5" stroke-miterlimit="10" stroke-linecap="round" stroke-linejoin="round"/>
</g>
</svg>
