<svg width="19" height="19" viewBox="0 0 19 19" fill="none" xmlns="http://www.w3.org/2000/svg">
<path opacity="0.33" d="M13.627 11.95H12.776L12.476 11.657C13.3487 10.6342 13.9117 9.38362 14.0987 8.05212C14.2858 6.72061 14.0892 5.36338 13.5321 4.13965C12.975 2.91592 12.0804 1.87646 10.9534 1.14323C9.82631 0.410003 8.51351 0.0134146 7.169 0C5.29631 0 3.50032 0.743925 2.17612 2.06812C0.851927 3.39231 0.108002 5.18831 0.108002 7.061C0.108002 8.93369 0.851927 10.7297 2.17612 12.0539C3.50032 13.3781 5.29631 14.122 7.169 14.122C8.84323 14.122 10.4609 13.516 11.723 12.416L12.014 12.716V13.574L17.396 19L18.996 17.381L13.627 11.95ZM7.167 11.95C6.19822 11.9587 5.24869 11.6794 4.43894 11.1475C3.62918 10.6156 2.9957 9.85517 2.61891 8.96263C2.24211 8.07008 2.13899 7.08571 2.32264 6.13446C2.50628 5.18321 2.96841 4.30796 3.65037 3.61981C4.33232 2.93167 5.20335 2.46165 6.15291 2.26941C7.10246 2.07717 8.08772 2.17139 8.98364 2.5401C9.87955 2.9088 10.6457 3.53538 11.1849 4.3403C11.7241 5.14522 12.012 6.09218 12.012 7.061C12.0158 7.70023 11.8935 8.33394 11.652 8.92582C11.4106 9.51771 11.0547 10.0561 10.6048 10.5103C10.155 10.9644 9.61991 11.3254 9.03034 11.5724C8.44076 11.8195 7.80824 11.9478 7.169 11.95H7.167Z" fill="black"/>
</svg>
