<svg width="17" height="17" viewBox="0 0 17 17" fill="none" xmlns="http://www.w3.org/2000/svg">
<path d="M16 9.5V7.5L13.823 7.137C13.6926 6.63181 13.4906 6.14789 13.223 5.7L14.506 3.9L13.1 2.49L11.3 3.772C10.8518 3.50615 10.3679 3.30578 9.863 3.177L9.5 1H7.5L7.137 3.177C6.63207 3.30578 6.14817 3.50615 5.7 3.772L3.9 2.49L2.49 3.9L3.772 5.7C3.50615 6.14817 3.30578 6.63207 3.177 7.137L1 7.5V9.5L3.177 9.863C3.30735 10.3682 3.50941 10.8521 3.777 11.3L2.49 13.1L3.9 14.51L5.7 13.228C6.14789 13.4956 6.63181 13.6976 7.137 13.828L7.5 16H9.5L9.863 13.823C10.3682 13.6926 10.8521 13.4906 11.3 13.223L13.1 14.506L14.51 13.1L13.228 11.3C13.4956 10.8521 13.6976 10.3682 13.828 9.863L16 9.5Z" stroke="#686868" stroke-miterlimit="10" stroke-linecap="round" stroke-linejoin="round"/>
</svg>
